<svg width="1056" height="768" viewBox="0 0 1056 768" xmlns="http://www.w3.org/2000/svg">
<rect width="100%" height="100%" fill="#ffffff"/>
<text x="12" y="20" font-family="sans-serif" font-size="14" fill="#333">Hotspot · 实心=区域（箭头=跨区传播方向） / 空心=话题</text>
<defs><marker id="arrow" viewBox="0 0 10 10" refX="9" refY="5" markerWidth="7" markerHeight="7" orient="auto-start-reverse"><path d="M 0 0 L 10 5 L 0 10 z" fill="#9e9e9e"/></marker></defs>
<line x1="106.8" y1="675.6" x2="106.8" y2="544.9" stroke="#9e9e9e" stroke-width="4.4" stroke-opacity="0.7" marker-end="url(#arrow)"/>
<line x1="106.8" y1="675.6" x2="106.8" y2="450.4" stroke="#9e9e9e" stroke-width="4.5" stroke-opacity="0.7" marker-end="url(#arrow)"/>
<line x1="106.8" y1="675.6" x2="106.8" y2="631.9" stroke="#9e9e9e" stroke-width="4.9" stroke-opacity="0.7" marker-end="url(#arrow)"/>
<line x1="106.8" y1="434.0" x2="106.8" y2="513.0" stroke="#9e9e9e" stroke-width="4.5" stroke-opacity="0.7" marker-end="url(#arrow)"/>
<line x1="106.8" y1="614.5" x2="106.8" y2="544.9" stroke="#9e9e9e" stroke-width="4.9" stroke-opacity="0.7" marker-end="url(#arrow)"/>
<line x1="106.8" y1="614.5" x2="106.8" y2="450.4" stroke="#9e9e9e" stroke-width="5.0" stroke-opacity="0.7" marker-end="url(#arrow)"/>
<line x1="769.8" y1="283.1" x2="739.4" y2="109.6" stroke="#9e9e9e" stroke-width="3.8" stroke-opacity="0.7"/>
<line x1="769.8" y1="283.1" x2="850.5" y2="107.9" stroke="#9e9e9e" stroke-width="3.6" stroke-opacity="0.7"/>
<line x1="769.8" y1="283.1" x2="620.9" y2="105.5" stroke="#9e9e9e" stroke-width="4.0" stroke-opacity="0.7"/>
<line x1="769.8" y1="283.1" x2="937.8" y2="104.5" stroke="#9e9e9e" stroke-width="3.5" stroke-opacity="0.7"/>
<line x1="769.8" y1="283.1" x2="934.2" y2="351.1" stroke="#9e9e9e" stroke-width="3.3" stroke-opacity="0.7"/>
<line x1="769.8" y1="283.1" x2="934.3" y2="219.3" stroke="#9e9e9e" stroke-width="3.2" stroke-opacity="0.7"/>
<line x1="769.8" y1="283.1" x2="483.1" y2="100.9" stroke="#9e9e9e" stroke-width="3.1" stroke-opacity="0.7"/>
<line x1="769.8" y1="283.1" x2="942.8" y2="661.6" stroke="#9e9e9e" stroke-width="2.9" stroke-opacity="0.7"/>
<line x1="736.4" y1="92.4" x2="627.0" y2="92.4" stroke="#9e9e9e" stroke-width="3.8" stroke-opacity="0.7"/>
<line x1="857.6" y1="92.4" x2="943.9" y2="342.0" stroke="#9e9e9e" stroke-width="3.7" stroke-opacity="0.7"/>
<line x1="949.2" y1="92.4" x2="753.8" y2="92.4" stroke="#9e9e9e" stroke-width="3.4" stroke-opacity="0.7"/>
<line x1="949.2" y1="213.5" x2="751.6" y2="101.0" stroke="#9e9e9e" stroke-width="3.4" stroke-opacity="0.7"/>
<line x1="857.6" y1="92.4" x2="627.0" y2="92.4" stroke="#9e9e9e" stroke-width="3.1" stroke-opacity="0.7"/>
<line x1="949.2" y1="92.4" x2="949.2" y2="341.1" stroke="#9e9e9e" stroke-width="3.1" stroke-opacity="0.7"/>
<line x1="857.6" y1="92.4" x2="753.8" y2="92.4" stroke="#9e9e9e" stroke-width="3.0" stroke-opacity="0.7"/>
<line x1="736.4" y1="92.4" x2="485.5" y2="92.4" stroke="#9e9e9e" stroke-width="3.0" stroke-opacity="0.7"/>
<line x1="469.7" y1="92.4" x2="592.8" y2="92.4" stroke="#9e9e9e" stroke-width="3.0" stroke-opacity="0.7"/>
<line x1="857.6" y1="92.4" x2="932.5" y2="92.4" stroke="#9e9e9e" stroke-width="2.9" stroke-opacity="0.7"/>
<line x1="857.6" y1="92.4" x2="939.5" y2="200.8" stroke="#9e9e9e" stroke-width="2.9" stroke-opacity="0.7"/>
<line x1="949.2" y1="92.4" x2="949.2" y2="197.5" stroke="#9e9e9e" stroke-width="2.8" stroke-opacity="0.7"/>
<text x="106.8" y="412.5" text-anchor="middle" font-family="sans-serif" font-size="15" fill="#777">区域</text>
<text x="804.5" y="70.0" text-anchor="middle" font-family="sans-serif" font-size="15" fill="#777">话题</text>
<circle cx="106.8" cy="614.5" r="14.4" fill="#febc6d" stroke="#5b5b5b" stroke-width="1"/>
<text x="106.8" y="641.9" text-anchor="middle" font-family="sans-serif" font-size="12" fill="#222">美国</text>
<circle cx="106.8" cy="675.6" r="13.1" fill="#feca7b" stroke="#5b5b5b" stroke-width="1"/>
<text x="106.8" y="701.7" text-anchor="middle" font-family="sans-serif" font-size="12" fill="#222">中国</text>
<circle cx="106.8" cy="529.0" r="12.9" fill="#fecc7d" stroke="#5b5b5b" stroke-width="1"/>
<text x="106.8" y="554.9" text-anchor="middle" font-family="sans-serif" font-size="12" fill="#222">日本</text>
<circle cx="106.8" cy="434.0" r="13.5" fill="#fec677" stroke="#5b5b5b" stroke-width="1"/>
<text x="106.8" y="460.4" text-anchor="middle" font-family="sans-serif" font-size="12" fill="#222">欧洲</text>
<circle cx="769.8" cy="283.1" r="30.0" fill="#ffffff" stroke="#bd0026" stroke-width="2.5"/>
<text x="769.8" y="326.1" text-anchor="middle" font-family="sans-serif" font-size="12" fill="#222">AI芯片</text>
<circle cx="736.4" cy="92.4" r="14.4" fill="#ffffff" stroke="#febc6d" stroke-width="2.5"/>
<text x="736.4" y="119.8" text-anchor="middle" font-family="sans-serif" font-size="12" fill="#222">研发</text>
<circle cx="857.6" cy="92.4" r="14.1" fill="#ffffff" stroke="#fec071" stroke-width="2.5"/>
<text x="857.6" y="119.5" text-anchor="middle" font-family="sans-serif" font-size="12" fill="#222">供应链</text>
<circle cx="609.9" cy="92.4" r="14.1" fill="#ffffff" stroke="#fec071" stroke-width="2.5"/>
<text x="609.9" y="119.5" text-anchor="middle" font-family="sans-serif" font-size="12" fill="#222">芯片</text>
<circle cx="949.2" cy="92.4" r="13.7" fill="#ffffff" stroke="#fec475" stroke-width="2.5"/>
<text x="949.2" y="119.1" text-anchor="middle" font-family="sans-serif" font-size="12" fill="#222">出口</text>
<circle cx="949.2" cy="357.3" r="13.2" fill="#ffffff" stroke="#fec97a" stroke-width="2.5"/>
<text x="949.2" y="383.5" text-anchor="middle" font-family="sans-serif" font-size="12" fill="#222">股价</text>
<circle cx="949.2" cy="213.5" r="13.0" fill="#ffffff" stroke="#fecb7c" stroke-width="2.5"/>
<text x="949.2" y="239.5" text-anchor="middle" font-family="sans-serif" font-size="12" fill="#222">市场</text>
<circle cx="469.7" cy="92.4" r="12.9" fill="#ffffff" stroke="#fecc7e" stroke-width="2.5"/>
<text x="469.7" y="118.3" text-anchor="middle" font-family="sans-serif" font-size="12" fill="#222">科技</text>
<circle cx="949.2" cy="675.6" r="12.4" fill="#ffffff" stroke="#fed183" stroke-width="2.5"/>
<text x="949.2" y="701.0" text-anchor="middle" font-family="sans-serif" font-size="12" fill="#222">政策</text>
</svg>